# xmcd CD database file
#
# Track frame offsets:
#	182
#	11112
#	23430
#	33515
#	44012
#	52227
#	63105
#	73367
#	85672
#	95885
#	106760
#	117002
#	127430
#	136090
#	146807
#	157772
#	167775
#
# Disc length: 2371 seconds
#
# Revision: 1
# Processed by: cddbd v1.5.1PL0 Copyright (c) Steve Scherf et al.
# Submitted via: CDex 1.51
#
DISCID=f1094111
DTITLE=James Booker - Gonzo: More Than All The 45s
DYEAR=1996
DGENRE=Blues
TTITLE0=Doing The Hambone
TTITLE1=Thinking About My Baby
TTITLE2=Your're Near Me
TTITLE3=Havenly Angel
TTITLE4=Teenage Rock
TTITLE5=Gonzo
TTITLE6=Cool Turkey
TTITLE7=Smacksie
TTITLE8=Kinda Happy
TTITLE9=Tubby Part 1
TTITLE10=Tubby Part 2
TTITLE11=Cross My Heart
TTITLE12=Big Nick
TTITLE13=Beale Street Popeye
TTITLE14=Memphis Twist
TTITLE15=The Duck
TTITLE16=The Crown
EXTD=YEAR: 1996
EXTT0=
EXTT1=
EXTT2=
EXTT3=
EXTT4=
EXTT5=
EXTT6=
EXTT7=
EXTT8=
EXTT9=
EXTT10=
EXTT11=
EXTT12=
EXTT13=
EXTT14=
EXTT15=
EXTT16=
PLAYORDER=
